<?xml version="1.0" standalone="no"?>
<!DOCTYPE svg PUBLIC "-//W3C//DTD SVG 20010904//EN"
 "http://www.w3.org/TR/2001/REC-SVG-20010904/DTD/svg10.dtd">
<svg version="1.0" xmlns="http://www.w3.org/2000/svg"
 width="1920.000000pt" height="1080.000000pt" viewBox="0 0 1920.000000 1080.000000"
 preserveAspectRatio="xMidYMid meet">

<g transform="translate(0.000000,1080.000000) scale(0.100000,-0.100000)"
fill="#000000" stroke="none">
<path d="M0 5400 l0 -5400 9600 0 9600 0 0 5400 0 5400 -9600 0 -9600 0 0
-5400z m4474 1864 c9 -8 16 -22 16 -29 0 -15 -27 -45 -40 -45 -13 0 -40 30
-40 45 0 15 27 45 40 45 5 0 16 -7 24 -16z m-140 -10 c9 -3 16 -12 16 -19 0
-7 -7 -16 -16 -19 -25 -9 -407 -7 -423 3 -8 5 -11 16 -8 25 6 14 33 16 211 16
112 0 211 -3 220 -6z m-123 -398 c179 -32 337 -155 423 -330 62 -126 69 -165
73 -436 3 -135 8 -248 11 -252 4 -4 32 -9 62 -12 101 -11 133 -18 223 -51 276
-103 437 -304 437 -547 0 -169 -67 -303 -214 -426 -102 -85 -282 -157 -425
-170 l-76 -7 -3 -141 -3 -141 55 -27 c62 -31 96 -67 96 -103 0 -133 -547 -238
-985 -188 -252 28 -408 72 -472 131 -60 57 -36 120 62 161 27 11 46 26 49 39
3 11 6 457 6 990 1 850 -1 974 -15 1013 -24 68 -20 176 9 236 34 70 67 112
127 157 104 78 175 95 469 116 8 1 49 -5 91 -12z"/>
<path d="M3782 6488 c-18 -18 -14 -46 9 -58 27 -15 51 5 47 39 -3 29 -35 40
-56 19z"/>
<path d="M3927 6493 c-14 -13 -7 -53 11 -62 37 -20 70 27 40 57 -13 13 -41 16
-51 5z"/>
<path d="M4070 6481 c-12 -23 -5 -47 16 -55 21 -8 42 3 49 25 14 42 -44 68
-65 30z"/>
<path d="M4401 5318 c-35 -13 -50 -38 -51 -84 0 -96 120 -119 150 -29 23 69
-36 137 -99 113z"/>
<path d="M4694 5320 c-31 -12 -54 -49 -54 -88 0 -74 95 -112 139 -56 53 67
-11 174 -85 144z"/>
<path d="M4983 5315 c-34 -15 -43 -31 -43 -84 0 -92 121 -114 150 -27 24 75
-38 140 -107 111z"/>
</g>
</svg>
