<?xml version="1.0" standalone="no"?>
<!DOCTYPE svg PUBLIC "-//W3C//DTD SVG 20010904//EN"
 "http://www.w3.org/TR/2001/REC-SVG-20010904/DTD/svg10.dtd">
<svg version="1.0" xmlns="http://www.w3.org/2000/svg"
 width="300.000000pt" height="63.000000pt" viewBox="0 0 300.000000 63.000000"
 preserveAspectRatio="xMidYMid meet">

<g transform="translate(0.000000,63.000000) scale(0.100000,-0.100000)"
fill="#000000" stroke="none">
<path d="M0 315 l0 -315 1500 0 1500 0 0 315 0 315 -1500 0 -1500 0 0 -315z
m613 184 c26 -12 47 -47 47 -78 0 -10 15 -24 40 -35 67 -29 64 -93 -5 -116
-34 -11 -47 -34 -23 -42 6 -2 8 -10 4 -16 -10 -16 -182 -16 -192 0 -4 6 -2 14
4 16 8 2 12 43 12 132 0 112 2 130 18 139 23 14 65 14 95 0z"/>
</g>
</svg>
